#!OML:ASF E:/inclinewalkrobotboard/Project1/Captureday1/Session1/subject1.ASF
:FULLY-SPECIFIED
:DEGREES
251
root 0 0 0 1.3903407051649959 -8.725377638605941 0.9380930534330119
lowerback 1.4548514894543965 -1.2708678320041662 -2.9499078090996385
upperback -1.0566238005028736 -1.5685072960205881 2.2370114509361536
thorax -1.6781134720470736 -0.7626494081235589 3.942677095335406
lowerneck -26.561793617633 -1.8916598106928015 -7.193159278256116
upperneck 11.72564591333291 -0.7262290228100174 4.597486181627571
head 7.934860468849626 -0.1782910844395114 2.6235503308557186
rclavicle -5.40719826355607E-15 -1.3404701509479994E-15
rhumerus -31.461391050045542 -1.7774287007451148 -80.9246576514704
rradius 30.819796091402562
rwrist 17.847440510040904
rhand -18.355044716455357 9.892352350789508
rfingers 7.125019999999954
rthumb 7.930339039741781 -19.932634575519362
lclavicle -1.61000034033099E-15 -6.229471221354857E-16
lhumerus -10.70649549754985 8.6563175361194 89.57580295698774
lradius 60.12703889929256
lwrist -5.03368164165112
lhand -33.543434781015826 17.379436635919692
lfingers 7.125020000000008
lthumb -6.737002588089047 47.01936046321602
rfemur 8.683177962047507 8.245995045443218 37.994402763627946
rtibia 23.700036433046865
rfoot -22.060796850350172 -6.5569926988239775
rtoes 0.2950525411138387
lfemur -30.720619018948824 -1.3890732547151254 -10.641073807238257
ltibia 35.59018069215968
lfoot -4.019026746059821 1.3139275064018543
ltoes -1.7458117478503823
252
root 0 0 0 1.3844388208696115 -8.721801475989412 0.9273460655030353
lowerback 1.4558501768063545 -1.2650485127428772 -2.9448516516509806
upperback -1.0610495273971494 -1.5599428469738752 2.2310805627004373
thorax -1.683455131034927 -0.7591256327371817 3.9342856281971543
lowerneck -26.469425424904205 -1.8874786920104936 -7.197946917714417
upperneck 11.878575494350088 -0.7243895628040595 4.582213424511086
head 7.978125788271528 -0.18429727946107247 2.621546715444758
rclavicle -5.946673033643086E-15 -1.6617349104975864E-15
rhumerus -31.37493673164223 -1.4560763805799244 -80.94706437437578
rradius 30.86697294229343
rwrist 17.773192481271334
rhand -18.427286018718355 9.918895818626446
rfingers 7.125019999999955
rthumb 7.860795749035104 -19.912752347481845
lclavicle -1.8497681130145263E-15 -7.317907619729445E-16
lhumerus -10.845876323888193 8.791940625521537 89.6647944057592
lradius 59.91960089132219
lwrist -5.021617739520572
lhand -33.50930646285227 17.339896214998394
lfingers 7.125020000000008
lthumb -6.702467657055047 46.98031983068746
rfemur 11.161712400727785 7.875824599604154 36.607549614540844
rtibia 26.768150274219124
rfoot -19.729400384787812 -5.253176133271807
rtoes -2.901769606823871
lfemur -31.76356238918455 -3.5035112218151614 -9.531744458157124
ltibia 27.177482702888625
lfoot -4.470730828027125 3.165937974748841
ltoes -1.6839969042335685
253
root 0 0 0 1.3830441916763687 -8.731161402187805 0.9215797608166554
lowerback 1.4389975278178464 -1.2621906965284024 -2.9455738852173443
upperback -1.0700407331772201 -1.5560877552960048 2.225521230736162
thorax -1.682975896634893 -0.7574973218420614 3.9297363467952424
lowerneck -26.39665224850473 -1.8825689043591067 -7.210409780061543
upperneck 12.039124582243332 -0.7162909816606099 4.568109507640656
head 8.028260366940426 -0.18883209452508845 2.6222056475147486
rclavicle -6.743459662347418E-15 -1.7541731266320606E-15
rhumerus -31.352518285709493 -1.349331218711673 -80.94230966670689
rradius 30.875070775520193
rwrist 17.753947170953527
rhand -18.45046709979445 9.92831050710834
rfingers 7.125019999999955
rthumb 7.838356732427332 -19.905967065541063
lclavicle -2.3300655786934803E-15 -7.764431889809591E-16
lhumerus -10.65802626973881 9.045734978585575 89.55640187572713
lradius 59.85082896862098
lwrist -5.102935653599651
lhand -33.546458508296155 17.28346961188803
lfingers 7.125020000000008
lthumb -6.736139215509045 46.921086105191236
rfemur 13.371477269751674 7.019217509285542 33.919229737303176
rtibia 33.81906822126445
rfoot -14.689011571109265 -3.297763101343061
rtoes -5.545945586106978
lfemur -31.014462119545552 -4.352411185704991 -9.590760248483729
ltibia 24.06481140122236
lfoot -4.524671760400567 3.4016346361926253
ltoes -1.6710419591266845
254
root 0 0 0 1.3833345851294965 -8.74633351280537 0.9200550462448218
lowerback 1.4108475468358805 -1.260813024877195 -2.9514094594196236
upperback -1.0841829072847373 -1.5545745182940292 2.2210517547954116
thorax -1.6814235171209684 -0.7564768201571365 3.9291825918329577
lowerneck -26.344417234300884 -1.8787410571888392 -7.22700058485211
upperneck 12.17312345056614 -0.7069694693741878 4.560393076968035
head 8.072181342363553 -0.19199563855692492 2.625618711996473
rclavicle -7.560953578439206E-15 -1.6106120745390958E-15
rhumerus -31.369663551850127 -1.398022724017146 -80.91764295561514
rradius 30.853478083452462
rwrist 17.75272175038552
rhand -18.441733086395132 9.939689584371076
rfingers 7.125019999999954
rthumb 7.846573357821437 -19.89691904834995
lclavicle -2.821021547283892E-15 -7.216245199448263E-16
lhumerus -10.254665101155876 9.343289906096036 89.31194952197947
lradius 59.88649313804731
lwrist -5.222762006831735
lhand -33.61603978954663 17.24052627100023
lfingers 7.125020000000008
lthumb -6.80188339315257 46.87328733113745
rfemur 11.245267712189678 5.468476842209899 31.530524886700753
rtibia 42.922524088632564
rfoot -8.474083515569324 -1.1655010066030411
rtoes -4.3870837810758
lfemur -28.61034968983029 -4.553910441805303 -11.096004818211723
ltibia 24.441280237270032
lfoot -3.6853000761515045 1.9979390452307735
ltoes -0.15894847936854362
255
root 0 0 0 1.3850257209031183 -8.759652865896829 0.9234555662432689
lowerback 1.3928787153108673 -1.2631341952348216 -2.9558230630894142
upperback -1.0904201831930664 -1.558270481004125 2.2202221442151115
thorax -1.6774137207810704 -0.7578975608732267 3.9310188422358068
lowerneck -26.3577659606796 -1.8792322339176697 -7.233756443392495
upperneck 12.1955839120605 -0.702026148608634 4.558263863477064
head 8.083881633194848 -0.1919919557291494 2.6269644461110544
rclavicle -7.684366337226859E-15 -1.5159822574881164E-15
rhumerus -31.436843192916484 -1.6900654915500901 -80.87207665614919
rradius 30.792318218726002
rwrist 17.765581256160758
rhand -18.38578744373486 9.962974915703755
rfingers 7.125019999999952
rthumb 7.900098433489411 -19.874613395394107
lclavicle -2.9506027700058452E-15 -7.539713772082268E-16
lhumerus -9.954836375166332 9.602295023283805 89.15954992993454
lradius 59.912225215686526
lwrist -5.322686977805294
lhand -33.67009833290808 17.200186014468514
lfingers 7.125020000000008
lthumb -6.853473750118845 46.82857432683858
rfemur 2.9265304738947915 3.404871464125697 28.73195120843807
rtibia 53.692344569653656
rfoot 0.30749362453855156 0.6256339289957431
rtoes 1.4976021436412785
lfemur -24.14465405313066 -4.425823180861434 -14.149454663019135
ltibia 27.452617194457012
lfoot -2.1067494315088977 -1.1096945694774285
ltoes 2.9115562220467712
